<svg id="Layer_1" enable-background="new 0 0 512 512" height="512" viewBox="0 0 512 512" width="512" xmlns="http://www.w3.org/2000/svg"><g><path d="m500.878 141.084-71.345-19.117v246.499c0 20.706-14.062 38.18-33.134 43.401l1.862 6.949c6.439 24.024-7.797 48.677-31.82 55.114l-52.484 14.063 87.674 23.492c8.002 2.144 16.227-2.605 18.371-10.607l91.483-341.423c2.144-8.001-2.605-16.226-10.607-18.371z"/><path d="m369.283 426.581-3.514-13.114h-238.302c-24.813 0-45-20.187-45-45v-246.499l-71.345 19.117c-8.002 2.144-12.751 10.369-10.607 18.371l91.483 341.423c2.144 8.002 10.369 12.751 18.371 10.607l248.307-66.533c8.002-2.145 12.751-10.37 10.607-18.372z"/><path d="m127.467 383.467h257.066c8.284 0 15-6.716 15-15v-353.467c0-8.284-6.716-15-15-15h-257.066c-8.284 0-15 6.716-15 15v353.467c0 8.284 6.716 15 15 15zm173.626-89.872 16.066-16.068c5.858-5.858 15.355-5.858 21.212 0 0 0 16.066 16.066 16.068 16.067 5.858 5.858 5.858 15.355 0 21.212-5.858 5.858-15.355 5.858-21.212 0l-5.46-5.46-5.461 5.461c-5.858 5.858-15.355 5.858-21.212 0-5.858-5.858-5.858-15.355-.001-21.212zm-143.533-224.935c5.858-5.858 15.355-5.858 21.212 0l5.461 5.461 5.46-5.46c5.858-5.858 15.355-5.858 21.212 0 5.858 5.858 5.858 15.355 0 21.212-.002.002-16.068 16.067-16.068 16.067-5.858 5.858-15.355 5.858-21.212 0l-16.065-16.067c-5.857-5.858-5.857-15.355 0-21.213z"/></g></svg>